<svg width="57" height="57" viewBox="0 0 57 57" fill="none" xmlns="http://www.w3.org/2000/svg">
<path d="M26.8066 11.2029L27.5357 10.8941C34.3045 7.88263 41.0257 7.95626 45.4219 8.52863L46.3956 8.66638L47.2791 8.81601L48.07 8.97038L48.7588 9.12001C50.8108 9.59026 52.0933 11.3454 52.2357 13.2311L52.25 13.5874V41.1018C52.25 43.5409 49.932 45.1416 47.7541 44.6405L47.0891 44.4933L46.3173 44.346L45.4504 44.2035C44.9642 44.1302 44.4764 44.0676 43.9874 44.0159L42.9115 43.9209C39.3894 43.6739 34.8033 43.9233 30.1934 45.7971L29.4643 46.1059C23.218 48.8846 17.0097 49.0366 12.6326 48.5925L11.5781 48.4738L10.6044 48.3313L9.72087 48.1816L9.31238 48.1056L8.24362 47.88C6.18925 47.4098 4.90675 45.6546 4.76425 43.7689L4.75 43.4126V15.8983C4.75 13.4591 7.068 11.856 9.24587 12.3595L9.91087 12.5068L10.6828 12.654L11.5496 12.7965C15.1976 13.3428 20.9831 13.5708 26.8066 11.2029ZM28.5 19C25.9804 19 23.5641 20.0009 21.7825 21.7825C20.0009 23.5641 19 25.9805 19 28.5C19 31.0196 20.0009 33.4359 21.7825 35.2175C23.5641 36.9991 25.9804 38 28.5 38C31.0196 38 33.4359 36.9991 35.2175 35.2175C36.9991 33.4359 38 31.0196 38 28.5C38 25.9805 36.9991 23.5641 35.2175 21.7825C33.4359 20.0009 31.0196 19 28.5 19ZM28.5 23.75C29.7598 23.75 30.968 24.2505 31.8588 25.1413C32.7496 26.032 33.25 27.2402 33.25 28.5C33.25 29.7598 32.7496 30.968 31.8588 31.8588C30.968 32.7496 29.7598 33.25 28.5 33.25C27.2402 33.25 26.032 32.7496 25.1412 31.8588C24.2504 30.968 23.75 29.7598 23.75 28.5C23.75 27.2402 24.2504 26.032 25.1412 25.1413C26.032 24.2505 27.2402 23.75 28.5 23.75Z" fill="#464DF9"/>
</svg>
