<svg width="57" height="57" viewBox="0 0 57 57" fill="none" xmlns="http://www.w3.org/2000/svg">
<path d="M29.9107 55.2378L29.8822 55.2425L29.7135 55.3256L29.666 55.3351L29.6328 55.3256L29.4642 55.2401C29.4388 55.2338 29.4198 55.2385 29.4072 55.2544L29.3977 55.2781L29.3573 56.2946L29.3692 56.3421L29.3929 56.373L29.6399 56.5488L29.6755 56.5583L29.704 56.5488L29.951 56.373L29.9795 56.335L29.989 56.2946L29.9487 55.2805C29.9423 55.2552 29.9297 55.2409 29.9107 55.2378ZM30.5377 54.9694L30.5044 54.9741L30.0674 55.195L30.0437 55.2188L30.0365 55.2449L30.0793 56.2661L30.0912 56.2946L30.1102 56.3136L30.5875 56.5321C30.6176 56.54 30.6406 56.5337 30.6564 56.5131L30.6659 56.4799L30.5852 55.0216C30.5773 54.9915 30.5614 54.9741 30.5377 54.9694ZM28.8395 54.9741C28.8291 54.9678 28.8166 54.9657 28.8046 54.9684C28.7927 54.971 28.7822 54.9782 28.7754 54.9884L28.7612 55.0216L28.6804 56.4799C28.682 56.5084 28.6955 56.5274 28.7208 56.5369L28.7564 56.5321L29.2338 56.3113L29.2575 56.2923L29.2647 56.2661L29.3074 55.2449L29.3003 55.2164L29.2765 55.1926L28.8395 54.9741Z" fill="white"/>
<path d="M26.8066 11.2029L27.5357 10.8941C34.3045 7.88263 41.0257 7.95626 45.4219 8.52863L46.3956 8.66638L47.2791 8.81601L48.07 8.97038L48.7588 9.12001C50.8108 9.59026 52.0933 11.3454 52.2357 13.2311L52.25 13.5874V41.1018C52.25 43.5409 49.932 45.1416 47.7541 44.6405L47.0891 44.4933L46.3173 44.346L45.4504 44.2035C44.9642 44.1302 44.4764 44.0676 43.9874 44.0159L42.9115 43.9209C39.3894 43.6739 34.8033 43.9233 30.1934 45.7971L29.4643 46.1059C23.218 48.8846 17.0097 49.0366 12.6326 48.5925L11.5781 48.4738L10.6044 48.3313L9.72087 48.1816L9.31238 48.1056L8.24362 47.88C6.18925 47.4098 4.90675 45.6546 4.76425 43.7689L4.75 43.4126V15.8983C4.75 13.4591 7.068 11.856 9.24587 12.3595L9.91087 12.5068L10.6828 12.654L11.5496 12.7965C15.1976 13.3428 20.9831 13.5708 26.8066 11.2029ZM28.5 19C25.9804 19 23.5641 20.0009 21.7825 21.7825C20.0009 23.5641 19 25.9805 19 28.5C19 31.0196 20.0009 33.4359 21.7825 35.2175C23.5641 36.9991 25.9804 38 28.5 38C31.0196 38 33.4359 36.9991 35.2175 35.2175C36.9991 33.4359 38 31.0196 38 28.5C38 25.9805 36.9991 23.5641 35.2175 21.7825C33.4359 20.0009 31.0196 19 28.5 19ZM28.5 23.75C29.7598 23.75 30.968 24.2505 31.8588 25.1413C32.7496 26.032 33.25 27.2402 33.25 28.5C33.25 29.7598 32.7496 30.968 31.8588 31.8588C30.968 32.7496 29.7598 33.25 28.5 33.25C27.2402 33.25 26.032 32.7496 25.1412 31.8588C24.2504 30.968 23.75 29.7598 23.75 28.5C23.75 27.2402 24.2504 26.032 25.1412 25.1413C26.032 24.2505 27.2402 23.75 28.5 23.75Z" fill="white"/>
</svg>
